<svg width="99" height="99" viewBox="0 0 99 99" fill="none" xmlns="http://www.w3.org/2000/svg">
<path d="M49.1986 23.9601C35.2406 23.9601 23.982 35.2187 23.982 49.1766C23.982 63.1346 35.2406 74.3932 49.1986 74.3932C63.1566 74.3932 74.4151 63.1346 74.4151 49.1766C74.4151 35.2187 63.1566 23.9601 49.1986 23.9601ZM49.1986 65.5707C40.1786 65.5707 32.8045 58.2186 32.8045 49.1766C32.8045 40.1347 40.1566 32.7826 49.1986 32.7826C58.2405 32.7826 65.5926 40.1347 65.5926 49.1766C65.5926 58.2186 58.2186 65.5707 49.1986 65.5707ZM81.3283 22.9286C81.3283 26.1986 78.6947 28.8103 75.4466 28.8103C72.1766 28.8103 69.5649 26.1767 69.5649 22.9286C69.5649 19.6805 72.1985 17.0469 75.4466 17.0469C78.6947 17.0469 81.3283 19.6805 81.3283 22.9286ZM98.0296 28.8981C97.6565 21.0193 95.8569 14.0403 90.0849 8.29029C84.3349 2.54031 77.356 0.740695 69.4772 0.345657C61.357 -0.115219 37.0183 -0.115219 28.8981 0.345657C21.0412 0.718748 14.0622 2.51836 8.29029 8.26835C2.51836 14.0183 0.740695 20.9973 0.345657 28.8761C-0.115219 36.9963 -0.115219 61.335 0.345657 69.4552C0.718748 77.334 2.51836 84.313 8.29029 90.063C14.0622 95.813 21.0193 97.6126 28.8981 98.0076C37.0183 98.4685 61.357 98.4685 69.4772 98.0076C77.356 97.6345 84.3349 95.8349 90.0849 90.063C95.8349 84.313 97.6345 77.334 98.0296 69.4552C98.4904 61.335 98.4904 37.0183 98.0296 28.8981ZM87.5391 78.168C85.8273 82.4695 82.5134 85.7834 78.1899 87.5172C71.7157 90.0849 56.3531 89.4924 49.1986 89.4924C42.044 89.4924 26.6595 90.063 20.2072 87.5172C15.9057 85.8054 12.5918 82.4914 10.858 78.168C8.29029 71.6938 8.88285 56.3312 8.88285 49.1766C8.88285 42.0221 8.31224 26.6376 10.858 20.1853C12.5699 15.8838 15.8838 12.5699 20.2072 10.8361C26.6815 8.26835 42.044 8.8609 49.1986 8.8609C56.3531 8.8609 71.7377 8.29029 78.1899 10.8361C82.4914 12.5479 85.8054 15.8618 87.5391 20.1853C90.1069 26.6595 89.5143 42.0221 89.5143 49.1766C89.5143 56.3312 90.1069 71.7157 87.5391 78.168Z" fill="black"/>
</svg>

