<svg width="54" height="41" viewBox="0 0 54 41" fill="none" xmlns="http://www.w3.org/2000/svg">
<path d="M53.5473 20.3407C53.5473 21.1878 53.2108 22.0002 52.6118 22.5992C52.0129 23.1982 51.2004 23.5347 50.3534 23.5347H3.50814C2.66104 23.5347 1.84864 23.1982 1.24965 22.5992C0.650657 22.0002 0.314148 21.1878 0.314148 20.3407C0.314148 19.4936 0.650657 18.6812 1.24965 18.0822C1.84864 17.4832 2.66104 17.1467 3.50814 17.1467H50.3534C51.2004 17.1467 52.0129 17.4832 52.6118 18.0822C53.2108 18.6812 53.5473 19.4936 53.5473 20.3407ZM3.50814 6.50004H50.3534C51.2004 6.50004 52.0129 6.16354 52.6118 5.56455C53.2108 4.96556 53.5473 4.15315 53.5473 3.30605C53.5473 2.45895 53.2108 1.64655 52.6118 1.04756C52.0129 0.448569 51.2004 0.112061 50.3534 0.112061H3.50814C2.66104 0.112061 1.84864 0.448569 1.24965 1.04756C0.650657 1.64655 0.314148 2.45895 0.314148 3.30605C0.314148 4.15315 0.650657 4.96556 1.24965 5.56455C1.84864 6.16354 2.66104 6.50004 3.50814 6.50004ZM50.3534 34.1813H3.50814C2.66104 34.1813 1.84864 34.5178 1.24965 35.1168C0.650657 35.7158 0.314148 36.5282 0.314148 37.3753C0.314148 38.2224 0.650657 39.0348 1.24965 39.6338C1.84864 40.2328 2.66104 40.5693 3.50814 40.5693H50.3534C51.2004 40.5693 52.0129 40.2328 52.6118 39.6338C53.2108 39.0348 53.5473 38.2224 53.5473 37.3753C53.5473 36.5282 53.2108 35.7158 52.6118 35.1168C52.0129 34.5178 51.2004 34.1813 50.3534 34.1813Z" fill="white"/>
</svg>
