<svg width="25" height="25" viewBox="0 0 25 25" fill="none" xmlns="http://www.w3.org/2000/svg">
<path d="M6.39081 2.08703L3.39081 6.08703V20.087C3.39081 20.6175 3.60152 21.1262 3.97659 21.5012C4.35167 21.8763 4.86038 22.087 5.39081 22.087H19.3908C19.9212 22.087 20.4299 21.8763 20.805 21.5012C21.1801 21.1262 21.3908 20.6175 21.3908 20.087V6.08703L18.3908 2.08703H6.39081Z" stroke="white" stroke-width="2" stroke-linecap="round" stroke-linejoin="round"/>
<path d="M3.39081 6.08703H21.3908" stroke="white" stroke-width="2" stroke-linecap="round" stroke-linejoin="round"/>
<path d="M16.3908 10.087C16.3908 11.1479 15.9694 12.1653 15.2192 12.9155C14.4691 13.6656 13.4517 14.087 12.3908 14.087C11.3299 14.087 10.3125 13.6656 9.56238 12.9155C8.81224 12.1653 8.39081 11.1479 8.39081 10.087" stroke="white" stroke-width="2" stroke-linecap="round" stroke-linejoin="round"/>
</svg>
