<svg xmlns="http://www.w3.org/2000/svg" id="Layer_1" data-name="Layer 1" viewBox="0 0 111.57 50"><defs><style>.cls-1{fill:#00ffda;}.cls-2{fill:#131151;}</style></defs><title>logo-traycorp-fundo-claro</title><path class="cls-1" d="M74.47,6.52c0,10.46,6,20.52,8.4,24a3,3,0,0,0,2.51,1.33h15.28a3,3,0,0,0,2.5-1.33c2.37-3.5,8.41-13.56,8.41-24Z"/><path class="cls-1" d="M7.68,48.16a3,3,0,0,1-2.47-1,4.65,4.65,0,0,1-.82-2.92,5.16,5.16,0,0,1,.79-3A2.77,2.77,0,0,1,7.62,40a7,7,0,0,1,2.18.48l.36-1.35a6.76,6.76,0,0,0-2.57-.53A4.42,4.42,0,0,0,4,40.16a6.14,6.14,0,0,0-1.25,4A5.71,5.71,0,0,0,4,48.1a4.5,4.5,0,0,0,3.58,1.45h0a5.74,5.74,0,0,0,2.65-.6L10,47.59A5.22,5.22,0,0,1,7.68,48.16Zm10.41-9.5a4,4,0,0,0-3.39,1.5,6.16,6.16,0,0,0-1.19,4,6.13,6.13,0,0,0,1.19,3.94,4,4,0,0,0,3.39,1.51,4,4,0,0,0,3.38-1.51,6.13,6.13,0,0,0,1.19-3.94,6.16,6.16,0,0,0-1.19-4A4,4,0,0,0,18.09,38.66Zm2.21,8.4a2.5,2.5,0,0,1-2.21,1.11,2.51,2.51,0,0,1-2.22-1.09,5.17,5.17,0,0,1-.75-2.94v0a5.17,5.17,0,0,1,.74-2.94,2.5,2.5,0,0,1,2.22-1.1,2.51,2.51,0,0,1,2.21,1.12A5.11,5.11,0,0,1,21,44.12,5.17,5.17,0,0,1,20.3,47.06Zm11.22-2.38a2.93,2.93,0,0,0,1.69-.84,2.7,2.7,0,0,0,.67-2,2.63,2.63,0,0,0-1.06-2.27,5.14,5.14,0,0,0-3-.77H27V49.36H28.6V45.18h.93a1.69,1.69,0,0,1,.95.25,2.68,2.68,0,0,1,.71.86l1.66,3.06h1.74l-1.8-3.28A3,3,0,0,0,31.52,44.68Zm-1.79-.86H28.6V40.18h1.13a3.6,3.6,0,0,1,1.9.41A1.52,1.52,0,0,1,32.26,42a1.59,1.59,0,0,1-.63,1.41A3.49,3.49,0,0,1,29.73,43.82Zm14.85-4.08a4.93,4.93,0,0,0-3.12-.87H38.61V49.38h1.57V45.8h1.28a4.93,4.93,0,0,0,3.12-.88,3.53,3.53,0,0,0,0-5.18ZM43.39,44a3.28,3.28,0,0,1-2,.49H40.18V40.24h1.25a3.28,3.28,0,0,1,2,.49,2.29,2.29,0,0,1,0,3.26Z"/><path class="cls-2" d="M75.87,32.69l-.26-.28Z"/><path class="cls-2" d="M62.49,10.83h3.59a53,53,0,0,0,2.16,8,53,53,0,0,1-2.16-8Z"/><path class="cls-2" d="M71.88,41h0q1.31-2.2,2.49-4.51Q73.19,38.83,71.88,41Z"/><path class="cls-2" d="M76.12,32.93c-.43.93-.87,1.85-1.33,2.76.46-.91.9-1.83,1.33-2.76Z"/><path class="cls-2" d="M87.82,14.06c1.09-4.51,1.52-7.49,1.52-7.49H84a67.61,67.61,0,0,1-1.65,8.85l-.18.68c-.74,2.85-1.67,5.82-2.77,8.82C79.05,26,78.65,27,78.22,28.1h0L78,27.9l-.12-.12a46.6,46.6,0,0,1-3.62-7.12,2.6,2.6,0,0,0-.1-.25C74,20,73.84,19.5,73.67,19A49.18,49.18,0,0,1,70.84,6.65v0H62.49v4.22h3.59a53,53,0,0,0,2.16,8,49.88,49.88,0,0,0,7,13c.13.17.27.35.42.52l.26.28.25.24h0c-.43.93-.87,1.85-1.33,2.76l-.42.83Q73.19,38.83,71.88,41h4.87c1.08-1.62,2.08-3.31,3-5,1-1.92,2-3.87,2.78-5.81,1-2.44,2-4.87,2.73-7.19q.24-.71.45-1.38t.42-1.35c.41-1.33.77-2.61,1.09-3.82.2-.76.39-1.49.56-2.19Z"/><circle class="cls-2" cx="72.52" cy="46.7" r="3.23"/><circle class="cls-2" cx="101.68" cy="46.7" r="3.23"/><path class="cls-2" d="M12.36,33.67c-5.4,0-8.57-2.78-8.57-9.29V10.72H0V6.42H3.79V.33L9.13.06V6.42h6.62v4.3H9.13v13.6c0,3.52,1.54,4.89,4.13,4.89a12.83,12.83,0,0,0,3.07-.37l.32,4.31A17.68,17.68,0,0,1,12.36,33.67Z"/><path class="cls-2" d="M33.14,5.79a18.11,18.11,0,0,1,3.76.36l-.74,4.47a9,9,0,0,0-2.65-.37,12.92,12.92,0,0,0-6.14,1.37V33H22V8.31A24.49,24.49,0,0,1,33.14,5.79Z"/><path class="cls-2" d="M49.42,33.67c-6.93,0-10.42-3.36-10.42-8,0-5.46,4.39-8.14,10.42-8.14a27.82,27.82,0,0,1,5.62.58V15.92c0-3.67-2-5.67-6.2-5.67a19.32,19.32,0,0,0-7.09,1.31L40.69,7.31a25,25,0,0,1,8.68-1.52c7.25,0,10.91,3.73,10.91,10.39V31.26A22.36,22.36,0,0,1,49.42,33.67ZM55,28.58V21.7a20.41,20.41,0,0,0-5-.63c-3.28,0-5.72,1.15-5.72,4.41,0,2.78,2,4.2,5.56,4.2A10.45,10.45,0,0,0,55,28.58Z"/><deepl-alert xmlns=""/><deepl-alert xmlns=""/><deepl-alert xmlns=""/><deepl-alert xmlns=""/></svg>